<svg id="Layer_1" data-name="Layer 1" xmlns="http://www.w3.org/2000/svg" viewBox="0 0 752.17 132.18"><defs><style>.cls-1{fill:#000000;}</style></defs><path class="cls-1" d="M97.18,338.41c-17.25,28.36-42.86,36-53.53,33.09-14.66-3.94-18.76-8.82-19.76-15.88-.26-1.8.42-3.58,1-5.3a9.28,9.28,0,0,1,2.83-4.23,6.28,6.28,0,0,1,5-1.21,6.77,6.77,0,0,1,4.47,2.72,9.42,9.42,0,0,1,1.58,3.86,8.31,8.31,0,0,1-.26,4.16,4.5,4.5,0,0,1-1.12,2c-.48.45-.92.86-1.31,1.21a2.23,2.23,0,0,0-.73,1.36,5.67,5.67,0,0,0,.66,2.65,8.73,8.73,0,0,0,3.16,4,11.82,11.82,0,0,0,4.27,1.74,14.66,14.66,0,0,0,4.73.16,35.73,35.73,0,0,0,4.67-.91,28.9,28.9,0,0,0,9.53-4.39,44.4,44.4,0,0,0,7.82-7.11,71.09,71.09,0,0,0,6.57-8.92q3-4.84,5.78-9.83c1.32-2.63,2.65-5.17,4-7.64s2.65-5,3.88-7.64c1-2.22,1.93-4.39,2.89-6.51s1.93-4.18,2.89-6.2q2.76-5.75,6-11t6.5-10.59a76,76,0,0,1,7.63-10.36,65.41,65.41,0,0,1,9.2-8.55,45.66,45.66,0,0,1,5.85-4.08,36.62,36.62,0,0,1,6.5-3,4.39,4.39,0,0,0,1.05-.16,3.29,3.29,0,0,1,1.19-.07,1.24,1.24,0,0,1,.85.53,1.88,1.88,0,0,1,.07,1.51,1.71,1.71,0,0,1-1.18,1.06,4,4,0,0,0-1.45.76c-.7.5-1.36.95-2,1.36a8.93,8.93,0,0,0-1.84,1.66A40.76,40.76,0,0,0,127.4,279q-2.82,5.83-5.45,11.72-3.95,8.94-7.36,18C112.31,314.78,99.46,334.66,97.18,338.41ZM46.37,317c-10.12-16,1.29-40.91,15-52.17,10.69-8.81,21.61-16.24,39.83-20.52,38.21-9,44.5,28.87,108.54.8a2.71,2.71,0,0,1,1.71-.68.93.93,0,0,1,.85.68,2.34,2.34,0,0,1-.13,1.51c-.22.61-42.16,21.79-89.05,9.65-2.64-.68-10.21-3.2-12.89-3.7a70.88,70.88,0,0,0-8.08-1.06,42.85,42.85,0,0,0-8,.15,39.57,39.57,0,0,0-11.76,3.63,42.33,42.33,0,0,0-10.26,7,48.64,48.64,0,0,0-8.21,10,53.34,53.34,0,0,0-5.65,12.32,71.09,71.09,0,0,0-1.65,7.11,43.72,43.72,0,0,0-.72,7.87,31.77,31.77,0,0,0,.92,7.64,16.07,16.07,0,0,0,3.15,6.43,12.25,12.25,0,0,0,4.93,3.48,16.89,16.89,0,0,0,5.92,1.05,19.52,19.52,0,0,0,6.11-1,23.47,23.47,0,0,0,5.39-2.49,4.87,4.87,0,0,0,1.31-1.14,17.86,17.86,0,0,1,2-1.81,6.37,6.37,0,0,1,2-1.14.81.81,0,0,1,1.18.61c.18.4,0,.93-.46,1.59a13.53,13.53,0,0,1-1.71,1.89c-.65.6-1.33,1.18-2,1.74L83,317.65a58.34,58.34,0,0,1-9.47,6.5C63.36,329.9,49.81,323.76,46.37,317Z" transform="translate(-23.83 -241.16)"/><path class="cls-1" d="M140,315.74a65.84,65.84,0,0,1-4.4,9.53q-2.44,4.28-5.06,8.35c-.71,1.14-1.43,2.28-2.17,3.41s-1.47,2.33-2.17,3.55c-1.23,2.2-2.54,4.39-4,6.58s-2.71,4.33-3.94,6.44a22.21,22.21,0,0,0-1.38,2.23,20.24,20.24,0,0,0-1.25,2.76,9.66,9.66,0,0,0-.59,2.89,4.89,4.89,0,0,0,.72,2.76,2.71,2.71,0,0,0,1.58,1.19,5.08,5.08,0,0,0,3.88-.66,23.67,23.67,0,0,0,4.8-3.42,63.27,63.27,0,0,0,5.06-5.13c1.71-1.92,3.3-3.85,4.8-5.78s2.78-3.77,3.87-5.52a41.17,41.17,0,0,0,2.44-4.34h-.14l.53-.92,1.31-1.84c.44-.61.75-.52.92.26a1.9,1.9,0,0,1,.07.93,4.35,4.35,0,0,1-.46,1.44v-.13a25.5,25.5,0,0,0-2,3.22c-.62,1.18-1.23,2.3-1.84,3.35q-2.64,4.74-5.65,9.2a45.91,45.91,0,0,1-6.71,7.89,32.42,32.42,0,0,1-8,5.52,21.71,21.71,0,0,1-9.59,2.1,9,9,0,0,1-3.55-.72,5.57,5.57,0,0,1-2.76-2.82,9.23,9.23,0,0,1-1.32-5A18,18,0,0,1,104.2,357q1.13-3.09,2.17-5.46c1.49-3.06,3-6,4.67-8.67s3.3-5.35,5.06-7.89q1.83-3,3.68-6.18l3.68-6.31a11.82,11.82,0,0,0,1.25-2.82c.21-.84.46-1.69.72-2.57a1.86,1.86,0,0,1,.07-.52,2.39,2.39,0,0,0,.06-.53,10.59,10.59,0,0,0,.46-1.44,2.55,2.55,0,0,1,.59-1.19,11.07,11.07,0,0,1,3.81-.79c1.58-.08,2.9-.13,4-.13.79,0,1.68,0,2.69.07a11.77,11.77,0,0,0,2.83-.2v.26l.13.27c.09.44.15.9.2,1.38A3.87,3.87,0,0,1,140,315.74Zm6.74-23.69c.53.9-2.34,10.51-3.2,11.12s-10.95.09-11.37-.64,1.88-11.88,3.32-12.72a3.56,3.56,0,0,1,2.74-.4C139.25,289.63,145.77,290.9,146.76,292.05Z" transform="translate(-23.83 -241.16)"/><path class="cls-1" d="M352.12,315.74a66.92,66.92,0,0,1-4.41,9.53q-2.43,4.28-5.06,8.35c-.7,1.14-1.42,2.28-2.17,3.41s-1.47,2.33-2.17,3.55c-1.22,2.2-2.54,4.39-3.94,6.58s-2.72,4.33-3.94,6.44a22.21,22.21,0,0,0-1.38,2.23,19.09,19.09,0,0,0-1.25,2.76,9.66,9.66,0,0,0-.59,2.89,4.73,4.73,0,0,0,.72,2.76,2.68,2.68,0,0,0,1.58,1.19,5,5,0,0,0,3.87-.66,23.14,23.14,0,0,0,4.8-3.42,61.67,61.67,0,0,0,5.06-5.13q2.56-2.88,4.8-5.78t3.88-5.52a42.66,42.66,0,0,0,2.43-4.34h-.13l.52-.92,1.32-1.84c.44-.61.74-.52.92.26a1.93,1.93,0,0,1,.06.93,3.93,3.93,0,0,1-.46,1.44v-.13a26.72,26.72,0,0,0-2,3.22c-.61,1.18-1.23,2.3-1.84,3.35q-2.62,4.74-5.65,9.2a45.87,45.87,0,0,1-6.7,7.89,32.8,32.8,0,0,1-8,5.52,21.73,21.73,0,0,1-9.6,2.1,9,9,0,0,1-3.55-.72,5.65,5.65,0,0,1-2.76-2.82,9.32,9.32,0,0,1-1.31-5A17.74,17.74,0,0,1,316.3,357q1.11-3.09,2.16-5.46c1.5-3.06,3.05-6,4.67-8.67s3.31-5.35,5.06-7.89c1.23-2,2.45-4.07,3.68-6.18l3.68-6.31a11.43,11.43,0,0,0,1.25-2.82c.22-.84.46-1.69.72-2.57a1.86,1.86,0,0,1,.07-.52,2.41,2.41,0,0,0,.07-.53,14.39,14.39,0,0,0,.46-1.44,2.46,2.46,0,0,1,.59-1.19,11,11,0,0,1,3.81-.79c1.58-.08,2.89-.13,3.94-.13.79,0,1.69,0,2.7.07a11.68,11.68,0,0,0,2.82-.2v.26l.14.27c.08.44.15.9.19,1.38A3.68,3.68,0,0,1,352.12,315.74Zm6.73-23.69c.54.9-2.33,10.51-3.19,11.12s-11,.09-11.38-.64,1.89-11.88,3.32-12.72a3.56,3.56,0,0,1,2.74-.4C351.34,289.63,357.87,290.9,358.85,292.05Z" transform="translate(-23.83 -241.16)"/><path class="cls-1" d="M198.51,265.79q-5.26,9.73-10.91,19.32c-3.77,6.4-12.49,22.7-16.3,29.18s-7.61,13-11.37,19.52-7.36,13.17-10.78,19.92a28.78,28.78,0,0,0-1.58,3,6.44,6.44,0,0,0-.66,3.68,1.91,1.91,0,0,0,1.19,1.78,4,4,0,0,0,3.28-.33,34,34,0,0,0,6.51-5,65.18,65.18,0,0,0,5.52-6.11,74.91,74.91,0,0,0,4.8-6.77c1.49-2.37,2.93-4.69,4.34-7a13.11,13.11,0,0,1,1.25-2.1c.65-1,1.29-1.45,1.9-1.45a.72.72,0,0,1,.79.6,3.2,3.2,0,0,1,0,1.31,5.21,5.21,0,0,1-.46,1.38l-.46.92q-3.42,4.47-6.77,9.66a100.18,100.18,0,0,1-7.3,9.93,51.68,51.68,0,0,1-8.67,8.28,26.11,26.11,0,0,1-10.65,4.73q-4.73.27-6.44-2.3a11,11,0,0,1-1.71-6.24,25.76,25.76,0,0,1,1.19-7.56,40.25,40.25,0,0,1,2.36-6.25,162.29,162.29,0,0,1,8.74-15.77q4.8-7.62,9.4-15.51c3.68-6.13,12.25-22.1,15.84-28.2s7.19-12.24,10.78-18.46a13.54,13.54,0,0,0,.85-1.78,7.69,7.69,0,0,0,.46-1.77v-1.71a8.76,8.76,0,0,1,.14-1.71c.34-.09,1.16-.22,2.43-.4s2.67-.35,4.2-.52,3-.35,4.34-.53a27.14,27.14,0,0,1,3-.26c.7.26,1,1,1,2.1A18.74,18.74,0,0,1,198.51,265.79Z" transform="translate(-23.83 -241.16)"/><path class="cls-1" d="M191.86,353.2c-2.36,2.63-4.8,5.35-7.29,8.15a33.31,33.31,0,0,1-8.35,6.84,18.19,18.19,0,0,1-3.81,1.64,10.89,10.89,0,0,1-3.88.46,7.88,7.88,0,0,1-3.55-1.12,7.13,7.13,0,0,1-2.69-3.22,10.25,10.25,0,0,1-.86-4.47,22.08,22.08,0,0,1,.66-4.73,24.73,24.73,0,0,1,1.64-4.6c.7-1.49,1.41-2.89,2.11-4.21q3-5,6.11-10.18t6.11-10.32c.79-1.32,1.51-2.65,2.17-4s1.29-2.83,1.9-4.4q.13-.52.27-1.38c.08-.57.17-1.14.26-1.71a9.93,9.93,0,0,1,.4-1.65,2.32,2.32,0,0,1,.78-1.18c.27,0,.88,0,1.84-.07l3.36-.13q1.91-.06,3.81-.06h3.09a.93.93,0,0,1,.52.92v1.05a11.75,11.75,0,0,1-.85,4.93,29,29,0,0,1-2.17,4.53q-2.76,5.52-5.92,10.65-2.88,5.26-6,10.25c-2.1,3.33-4.17,6.71-6.18,10.13a28.67,28.67,0,0,0-1.64,3.74,3.28,3.28,0,0,0,.59,3.75,2.39,2.39,0,0,0,2.17.72,7.91,7.91,0,0,0,2.49-.85,10.36,10.36,0,0,0,2.24-1.58c.66-.61,1.2-1.14,1.64-1.58a51.84,51.84,0,0,0,7.63-8.67c2.27-3.24,4.47-6.4,6.57-9.47q3.42-5,6.37-10.25a92.78,92.78,0,0,0,5.2-10.78,41.25,41.25,0,0,1,1.64-3.94,32.48,32.48,0,0,1,1.64-3.16c1.4-.08,3.18-.22,5.33-.39s4-.27,5.45-.27h2.63a15.24,15.24,0,0,1-.39,1.85,13.32,13.32,0,0,0-.46,1.77,5.16,5.16,0,0,1-.6,1.64A77.35,77.35,0,0,1,218.28,328q-3.15,4.94-6.17,9.86c-2,3.28-3.91,6.64-5.66,10.05a51.67,51.67,0,0,0-4.07,10.78c-.26,2.19.15,3.44,1.25,3.75s2.38-.15,3.87-1.38a68.07,68.07,0,0,0,10.65-11.31q4.74-6.3,8.94-12.88a1.93,1.93,0,0,1,1.71-.46c.61.13.83.68.66,1.64a165.06,165.06,0,0,1-9.67,14,111.82,111.82,0,0,1-11.5,12.82,29.25,29.25,0,0,1-6.11,3.88,9.91,9.91,0,0,1-6.64.72,5.74,5.74,0,0,1-3.87-2.56,8.93,8.93,0,0,1-1.19-4.34,22.17,22.17,0,0,1,.46-5C191.29,355.9,191.6,354.43,191.86,353.2Z" transform="translate(-23.83 -241.16)"/><path class="cls-1" d="M270.13,337.43q-3.81,5.13-7.95,10.32a99.77,99.77,0,0,1-8.94,9.79,68.22,68.22,0,0,1-10.32,8.15,39.35,39.35,0,0,1-12,5.13,14,14,0,0,1-3.22-.13,14,14,0,0,1-8.54-5.13,13,13,0,0,1-2.17-5.79,20.16,20.16,0,0,1,.26-6.5,37.06,37.06,0,0,1,1.84-6.38,69.68,69.68,0,0,1,7.43-13.6A59.11,59.11,0,0,1,237,321.79a59.93,59.93,0,0,1,6.5-4.93,35.72,35.72,0,0,1,7.43-3.75c1.14-.35,2.45-.72,3.94-1.12a28,28,0,0,1,4.6-.79,22.8,22.8,0,0,1,4.54.07,11,11,0,0,1,3.88,1.18,4.42,4.42,0,0,1,2.3,2.83,6.24,6.24,0,0,1-.27,3.35,14,14,0,0,1-1.77,3.42c-.79,1.14-1.49,2.1-2.1,2.89l-.66,1a7.32,7.32,0,0,1-.92,1.11,3.36,3.36,0,0,1-1.18.79,1.37,1.37,0,0,1-1.19,0,2.14,2.14,0,0,1-.78-2.1c.08-1,.13-1.66.13-2.1,0-.7,0-1.52-.13-2.44a11.84,11.84,0,0,0-.53-2.56,6.2,6.2,0,0,0-1.18-2.1,2.82,2.82,0,0,0-2.24-.92,6.33,6.33,0,0,0-3.48,1.05,19.07,19.07,0,0,0-3.16,2.56,34.56,34.56,0,0,0-2.82,3.22c-.88,1.14-1.62,2.11-2.24,2.89a84.63,84.63,0,0,0-5.52,7.56q-2.49,3.89-4.73,8-1.85,3.4-3.81,7.23a21.43,21.43,0,0,0-2.37,7.75,8.07,8.07,0,0,0,1.78,5.92,5.64,5.64,0,0,0,5.58,2,42.56,42.56,0,0,0,9.2-4.54,59.57,59.57,0,0,0,8.15-6.37,78.57,78.57,0,0,0,7.17-7.63q3.35-4.06,6.24-8.28a11.45,11.45,0,0,1,.59-1.25A19.56,19.56,0,0,1,269,334a11.39,11.39,0,0,1,1.25-1.52,1.47,1.47,0,0,1,1.32-.52c.7,0,1.05.26,1.05.79a3.54,3.54,0,0,1-.53,1.71,20.9,20.9,0,0,1-1.18,1.83A12.89,12.89,0,0,0,270.13,337.43Z" transform="translate(-23.83 -241.16)"/><path class="cls-1" d="M311.46,262.5a6.82,6.82,0,0,1,.66-2.1,2.63,2.63,0,0,1,1.84-.92,45.34,45.34,0,0,0,4.87-.86,14.41,14.41,0,0,1,4.86-.32c1.4.17,2.17.79,2.3,1.84a8.44,8.44,0,0,1-.46,3.61,19.82,19.82,0,0,1-1.77,3.94l-1.65,2.83q-5.52,9.47-11,18.67c-3.68,6.13-15.66,25.45-19.52,31.68,1.49-1.14,3-2.35,4.67-3.62a39.2,39.2,0,0,1,5-3.35,20.52,20.52,0,0,1,5.39-2.1,14.72,14.72,0,0,1,5.85-.14,7.6,7.6,0,0,1,3.75,1.58,6.68,6.68,0,0,1,2,2.83,9.61,9.61,0,0,1,.53,3.55,17.66,17.66,0,0,1-.6,3.87,30.82,30.82,0,0,1-4.2,9.34q-2.89,4.34-5.66,8.54c-.78,1.32-1.66,2.63-2.62,3.95s-1.91,2.67-2.83,4.07-1.78,2.81-2.56,4.21a21.3,21.3,0,0,0-1.84,4.2q-.93,2.9.72,3.62A4.38,4.38,0,0,0,303,361a67.48,67.48,0,0,0,12.81-11.44,148.14,148.14,0,0,0,10.58-13.67,2.49,2.49,0,0,1,2.17-1.18c.75.09.9.79.46,2.1q-3.54,4.86-7.16,9.86a114.91,114.91,0,0,1-7.62,9.46,62,62,0,0,1-8.81,8.09,39.39,39.39,0,0,1-10.85,5.72,14.7,14.7,0,0,1-3.08.19,7.8,7.8,0,0,1-3-.72,5.75,5.75,0,0,1-3.09-3.29,9.54,9.54,0,0,1-.4-4.47,22.45,22.45,0,0,1,1.25-4.79,35,35,0,0,1,1.84-4.14q2.5-5,5.39-9.6t5.92-9.2c.43-.7,1.14-1.78,2.1-3.22a50.06,50.06,0,0,0,2.7-4.6,16.56,16.56,0,0,0,1.64-4.67A3.5,3.5,0,0,0,305,318c-.7-.52-1.73-.5-3.09.07a27.83,27.83,0,0,0-4.27,2.3,37.77,37.77,0,0,0-4.14,3.09,29.15,29.15,0,0,0-2.7,2.56,90.78,90.78,0,0,0-7.49,9.73q-3.42,5.13-6.57,10.45t-6.25,10.71q-3.09,5.4-6.5,10.52c-1.14,1.66-2.35,2.5-3.62,2.5h-4.8a7.57,7.57,0,0,0-2,0,3.68,3.68,0,0,1-2-.27,1.43,1.43,0,0,1-.66-1.9,16.4,16.4,0,0,1,1.25-3,25.36,25.36,0,0,1,1.91-3.09q1-1.44,1.44-2.1,10.52-17.75,21-35.62c7-11.92,22-37,28.59-49q1.85-3,3.82-6A17.19,17.19,0,0,0,311.46,262.5Z" transform="translate(-23.83 -241.16)"/><path class="cls-1" d="M442.39,339.68c-17.25,28.37-42.86,36-53.54,33.09-14.65-3.94-18.75-8.82-19.75-15.88-.26-1.8.41-3.58,1-5.3a9.28,9.28,0,0,1,2.83-4.23,6.32,6.32,0,0,1,5-1.21,6.79,6.79,0,0,1,4.47,2.72,9.42,9.42,0,0,1,1.58,3.86,8.31,8.31,0,0,1-.26,4.16,4.49,4.49,0,0,1-1.12,2c-.48.45-.92.86-1.31,1.21a2.26,2.26,0,0,0-.73,1.36,5.67,5.67,0,0,0,.66,2.65,8.81,8.81,0,0,0,3.16,4,12.19,12.19,0,0,0,4.27,1.74,15,15,0,0,0,4.73.15,34.45,34.45,0,0,0,4.67-.91,28.9,28.9,0,0,0,9.53-4.39,44,44,0,0,0,7.82-7.11,71.09,71.09,0,0,0,6.57-8.92q3-4.85,5.78-9.83c1.32-2.62,2.65-5.17,4-7.64s2.65-5,3.88-7.64c1-2.22,1.93-4.39,2.89-6.5s1.93-4.19,2.89-6.21q2.76-5.75,6-11t6.5-10.59a76,76,0,0,1,7.63-10.36,64.76,64.76,0,0,1,9.2-8.54,44.75,44.75,0,0,1,5.85-4.09,36.62,36.62,0,0,1,6.5-3,4.93,4.93,0,0,0,1.05-.15,3.32,3.32,0,0,1,1.19-.08,1.24,1.24,0,0,1,.85.53,1.88,1.88,0,0,1,.07,1.51,1.71,1.71,0,0,1-1.19,1.06,4.06,4.06,0,0,0-1.44.76c-.7.5-1.36,1-2,1.36a8.93,8.93,0,0,0-1.84,1.66,40.51,40.51,0,0,0-7.17,10.36c-1.88,3.89-3.7,7.79-5.45,11.73q-3.95,8.92-7.36,18C457.52,316.05,444.67,335.93,442.39,339.68Z" transform="translate(-23.83 -241.16)"/><path class="cls-1" d="M474.67,357.93c5.26,1.34,15.54-4.72,16.88-6.64A72,72,0,0,0,496,344a50.74,50.74,0,0,1,4.53-7.18,16.87,16.87,0,0,1,1.19-1.59c.55-.65,1.08-.83,1.58-.53a1.28,1.28,0,0,1,.57,1.21,4.79,4.79,0,0,1-.45,1.59,10.23,10.23,0,0,1-.88,1.59,10,10,0,0,0-.63,1.06q-2.64,4.08-5.16,8.32t-5.35,8.16a71.48,71.48,0,0,1-6,7.34,35.57,35.57,0,0,1-7.12,5.82,20.31,20.31,0,0,1-7.68,2.73,10.11,10.11,0,0,1-7.68-2,13.93,13.93,0,0,1-4.39-5.41c-5.11-10.17,7.48-49.85,6.3-50.36-.84-.3-9.55.43-9.18,0a3.13,3.13,0,0,1,1.7-.83,17.66,17.66,0,0,1,2.33-.3c.8-.05,1.37-.08,1.7-.08,37-.85,76.26-75.37,12-67.16C436.88,251,426.21,279,425.42,282.21a33.57,33.57,0,0,0-.95,9.91,11.62,11.62,0,0,0,3.09,7.87,8.09,8.09,0,0,0,7.24,2.27,10,10,0,0,0,3.77-1.29,37.25,37.25,0,0,0,3.4-2.34l.51-.61a5,5,0,0,1,.88-.83,3.5,3.5,0,0,1,.94-.53.84.84,0,0,1,.7,0q.5.45.12,1.44a11.66,11.66,0,0,1-.63,1.43,14.82,14.82,0,0,1-3.9,5l-4.66,3.94a29.11,29.11,0,0,1-4.72,3,13.05,13.05,0,0,1-5,1.28,10,10,0,0,1-7.55-1.89,14.16,14.16,0,0,1-4.35-6.28,30.19,30.19,0,0,1-1.51-8.69c-1.51-27.71,35.25-45.83,45.12-48.66,67.28-19.3,68.73,13.09,65.51,24.24-9.27,32.13-49.3,43.34-53.18,42.63C470.27,314,464.16,355.26,474.67,357.93Z" transform="translate(-23.83 -241.16)"/><path class="cls-1" d="M504.58,359.6c.27,2,1,3.35,2.11,4a6.31,6.31,0,0,0,4,.72,15.8,15.8,0,0,0,4.66-1.31,27.21,27.21,0,0,0,3.95-2.1,42.69,42.69,0,0,0,7.42-5.85q3.75-3.61,7-7.36c2.18-2.5,4.16-4.85,5.91-7s3.15-3.85,4.21-5c.61-.7,1-.86,1.25-.46a2.28,2.28,0,0,1,.06,1.64,19.83,19.83,0,0,1-2.63,4.8,69.29,69.29,0,0,1-4.73,6q-2.76,3.15-6,6.44t-6.38,6.05q-3.15,2.76-5.85,4.86a32.9,32.9,0,0,1-4.4,3,23.1,23.1,0,0,1-5.72,2.3,21.28,21.28,0,0,1-6.31.73,13.35,13.35,0,0,1-5.78-1.58,10.14,10.14,0,0,1-4.27-4.6,14.17,14.17,0,0,1-1.38-5.92,25.59,25.59,0,0,1,.65-6.31,36.93,36.93,0,0,1,2-6.11,57.73,57.73,0,0,1,2.69-5.58,56.65,56.65,0,0,1,9.33-13.15,58.82,58.82,0,0,1,12.62-10,38,38,0,0,1,7.17-3.68,39.44,39.44,0,0,1,7.69-2.1,18.25,18.25,0,0,1,5.38-.27,5.32,5.32,0,0,1,4.34,2.76,6.26,6.26,0,0,1,1,3.88,12.89,12.89,0,0,1-.91,4,17.18,17.18,0,0,1-2,3.68,25.52,25.52,0,0,1-2.57,3A34.37,34.37,0,0,1,532,335a70.56,70.56,0,0,1-8.08,4.34c-1.5.61-3,1.16-4.41,1.64s-3,.94-4.53,1.38a25.25,25.25,0,0,1-3.16.4,3.84,3.84,0,0,0-2.76,1.18,7.07,7.07,0,0,0-1.64,3.15,25.09,25.09,0,0,1-1.25,3.55,21.75,21.75,0,0,0-1.38,4.41A14.43,14.43,0,0,0,504.58,359.6ZM511,339.88a15.73,15.73,0,0,0,8.35-2.89,79.69,79.69,0,0,0,7.16-5.65,34.9,34.9,0,0,0,3.23-3.09,25.66,25.66,0,0,0,2.69-3.48c.53-1,1.14-2.17,1.84-3.62a7.65,7.65,0,0,0,.92-3.88c-.09-1-.39-1.53-.92-1.7a2.94,2.94,0,0,0-2,.19,12,12,0,0,0-2.56,1.45,32,32,0,0,0-2.57,2c-.79.7-1.49,1.38-2.1,2s-1,1.08-1.18,1.25a67.2,67.2,0,0,0-6.9,8.35Q513.91,335.29,511,339.88Z" transform="translate(-23.83 -241.16)"/><path class="cls-1" d="M587.92,337.65q-3.82,5.13-8,10.32a99.77,99.77,0,0,1-8.94,9.79,67.73,67.73,0,0,1-10.32,8.15,39.25,39.25,0,0,1-12,5.13,14,14,0,0,1-3.22-.13,12.29,12.29,0,0,1-3.09-.93,12.07,12.07,0,0,1-5.45-4.2,13,13,0,0,1-2.17-5.79,20.44,20.44,0,0,1,.26-6.5,37.06,37.06,0,0,1,1.84-6.38,70.22,70.22,0,0,1,7.43-13.6,64.17,64.17,0,0,1,17-16.43,36.14,36.14,0,0,1,7.42-3.75c1.14-.35,2.46-.72,3.95-1.12a27.8,27.8,0,0,1,4.6-.79,22.7,22.7,0,0,1,4.53.07,11,11,0,0,1,3.88,1.18,4.44,4.44,0,0,1,2.3,2.83,6.33,6.33,0,0,1-.26,3.35,14.37,14.37,0,0,1-1.78,3.42c-.79,1.14-1.49,2.1-2.1,2.89q-.27.39-.66,1a6.86,6.86,0,0,1-.92,1.11,3.27,3.27,0,0,1-1.18.79,1.35,1.35,0,0,1-1.18,0,2.11,2.11,0,0,1-.79-2.1c.08-1,.13-1.66.13-2.1,0-.7,0-1.52-.13-2.44a11.84,11.84,0,0,0-.53-2.56,6.2,6.2,0,0,0-1.18-2.1,2.8,2.8,0,0,0-2.24-.92,6.38,6.38,0,0,0-3.48,1.05,18.61,18.61,0,0,0-3.15,2.56,33.26,33.26,0,0,0-2.83,3.22c-.88,1.14-1.62,2.11-2.24,2.9a83.09,83.09,0,0,0-5.52,7.55q-2.49,3.88-4.73,8-1.85,3.42-3.81,7.23a21.63,21.63,0,0,0-2.37,7.75,8.07,8.07,0,0,0,1.78,5.92,5.66,5.66,0,0,0,5.59,2,42.78,42.78,0,0,0,9.2-4.54,60.81,60.81,0,0,0,8.15-6.37,79.72,79.72,0,0,0,7.16-7.63c2.24-2.71,4.31-5.47,6.24-8.28a10.26,10.26,0,0,1,.6-1.25,15.65,15.65,0,0,1,1-1.7,10.67,10.67,0,0,1,1.25-1.52,1.44,1.44,0,0,1,1.31-.52c.7,0,1,.26,1,.79a3.52,3.52,0,0,1-.52,1.71c-.36.61-.75,1.22-1.19,1.83A10.28,10.28,0,0,0,587.92,337.65Z" transform="translate(-23.83 -241.16)"/><path class="cls-1" d="M603.48,318.72a68.51,68.51,0,0,1,8.87-4.67,28.14,28.14,0,0,1,9.79-2.3,17.89,17.89,0,0,1,8.61,1.58,11.6,11.6,0,0,1,5.85,5.78,16.83,16.83,0,0,1,.92,5.79,24.67,24.67,0,0,1-.72,6.11c-.48,1.89-1,3.66-1.51,5.33a64.46,64.46,0,0,1-4,8,82.13,82.13,0,0,1-5.32,7.95,77.13,77.13,0,0,1-5.79,6.18A58.87,58.87,0,0,1,613.4,364a42.45,42.45,0,0,1-7.69,4.34,30.08,30.08,0,0,1-8.54,2.3,19.91,19.91,0,0,1-8.74-.92,14.94,14.94,0,0,1-7-4.6,16.19,16.19,0,0,1-3-9.2,23.62,23.62,0,0,1,.33-3.75,33.79,33.79,0,0,1,.86-3.87,50.53,50.53,0,0,1,9.26-16.37,69,69,0,0,1,14.53-13.21Zm-12,44.36c.34.91,1.44,1.68,3,2.3,4.14,1.72,15.68-8.65,18.14-11.76a93,93,0,0,0,6.64-9.6,83.62,83.62,0,0,0,5.06-9.85c5.32-12.36,3.78-17.5.92-18.21a6.49,6.49,0,0,0-4.41.92,27.31,27.31,0,0,0-3.87,2.37,65.72,65.72,0,0,0-8.88,8,83.13,83.13,0,0,0-7.69,9.6,73.36,73.36,0,0,0-5.78,10C593,350.18,589.31,357.34,591.45,363.08Z" transform="translate(-23.83 -241.16)"/><path class="cls-1" d="M683.59,336.46c.26.62-.05,1.63-.92,3q-2.62,3.67-4.73,6.51c-1.41,1.88-2.76,3.66-4.08,5.32s-2.65,3.33-4,5-3,3.55-4.8,5.66q-1.57,1.57-3.74,3.41a30,30,0,0,1-4.6,3.22,15.9,15.9,0,0,1-5,1.85,8.34,8.34,0,0,1-4.93-.6,7.54,7.54,0,0,1-4.07-4.27,12.86,12.86,0,0,1-.53-5.85,23.79,23.79,0,0,1,1.71-6.24c.88-2.06,1.71-3.83,2.5-5.33,1.14-2.18,7.29-9.83,9-11.63s3.4-3.59,5.06-5.39,5.32-5.84,6.81-7.86a90.92,90.92,0,0,1-12.6-1.51c-19.23,43.68-35,50.25-51.89,47.58-.78-.12,3.77-1.71,4.29-2.5,13.37-.37,28.16-9,45.93-54.39a1.9,1.9,0,0,1,2.27-.51,5.19,5.19,0,0,1,1.45.66c.48.31.94.64,1.38,1s4.12.62,4.47.79a11.06,11.06,0,0,0,3.42,1,12.58,12.58,0,0,0,3.41-.07,22.71,22.71,0,0,0,4.41-1.25,17.16,17.16,0,0,1,4.27-1.11c1-.09,1.73.06,2,.46a1.65,1.65,0,0,1,.26,1.44,6.46,6.46,0,0,1-.79,1.84c-.39.66-.77,1.25-1.12,1.78q-4.61,5.78-8.61,11.83t-7.69,12.49c-.7,1.05-1.4,2.14-2.1,3.28s-1.36,2.3-2,3.49a18.79,18.79,0,0,0-1.45,3.61,11,11,0,0,0-.39,3.81,10.35,10.35,0,0,0,.52,3,1.74,1.74,0,0,0,2.11,1.45,10.45,10.45,0,0,0,4.93-2.83,62.42,62.42,0,0,0,5.58-5.84A90.56,90.56,0,0,0,675,345.4q2.68-3.93,4.93-7.09a16.76,16.76,0,0,1,1.51-2C682,335.61,682.71,335.68,683.59,336.46Z" transform="translate(-23.83 -241.16)"/><path class="cls-1" d="M751.1,268.64c.44-.88.9-1.75,1.38-2.63a6.93,6.93,0,0,0,.85-2.76,8.06,8.06,0,0,0-.13-1.58,1.43,1.43,0,0,1,.53-1.31,6.57,6.57,0,0,1,2.43-1.12,20.7,20.7,0,0,1,3.42-.66c1.18-.13,2.34-.22,3.48-.26a17.78,17.78,0,0,1,2.76.07c1.31.17,2,.74,2.17,1.7a7.78,7.78,0,0,1-.33,3.23,16,16,0,0,1-1.51,3.48c-.66,1.14-1.12,2-1.38,2.5q-7.37,13.14-14.92,25.83c-5,8.45-31.48,55.05-32.66,57a25.19,25.19,0,0,0-2.7,5.91,9,9,0,0,0-.26,2.24,4.43,4.43,0,0,0,.39,2,2.28,2.28,0,0,0,1.19,1.12c.52.22,6.59-3.64,8.74-5.79s5.13-4.19,7-6.55,12.81-14.5,12.46-13.63c-3.6,6.05-3.57,6.56-8.22,12.26s-14.92,15.79-21.06,19.56a11.28,11.28,0,0,1-5.85,1.05,6.36,6.36,0,0,1-4.93-3,11.29,11.29,0,0,1-1.51-5.45,21.6,21.6,0,0,1,.59-5.59,39.34,39.34,0,0,1-4.46,5l-4.87,4.6a41.57,41.57,0,0,1-5.13,4.07,12.56,12.56,0,0,1-6.17,2.24,7.82,7.82,0,0,1-4.93-.73,8.92,8.92,0,0,1-3.29-3.08,13.58,13.58,0,0,1-1.77-4.47,15.51,15.51,0,0,1-.27-4.87,36.8,36.8,0,0,1,2.63-11.3,51.59,51.59,0,0,1,5.72-10.45,72.19,72.19,0,0,1,16.63-16.76,38.43,38.43,0,0,1,13.41-6.7l3.61-.6a6.91,6.91,0,0,1,3.62.33,5.09,5.09,0,0,1,2.43,2c.57.92,1.16,1.91,1.77,3C729.17,306.36,744.35,281,751.1,268.64Zm-56.33,92.41a104.37,104.37,0,0,0,14.86-18.8,74.09,74.09,0,0,0,9.2-21.95c-.18-2.28-1-3.59-2.57-3.95a6,6,0,0,0-4.79,1.19,30.79,30.79,0,0,0-4.8,4.14q-2.17,2.29-4.14,4.8c-.79.87-1.91,2.21-3.35,4s-3,3.84-4.67,6.12-3.33,4.69-5,7.23a61.15,61.15,0,0,0-4.21,7.42A28.15,28.15,0,0,0,683,358a6.61,6.61,0,0,0,.72,5.06,3.18,3.18,0,0,0,2.5,1.58,8.69,8.69,0,0,0,3.15-.33,11.54,11.54,0,0,0,3.09-1.45A14.76,14.76,0,0,0,694.77,361.05Z" transform="translate(-23.83 -241.16)"/><path class="cls-1" d="M776,312.67a5.88,5.88,0,0,1-.66,2c-.35.66-.74,1.34-1.18,2l-1.31,2a48.75,48.75,0,0,0-1.78,6.64l-1.38,6.9v-.13q-1.19,5.52-2.5,10.91a56.13,56.13,0,0,1-3.55,10.25,37,37,0,0,1-5.71,8.87,25.74,25.74,0,0,1-9,6.51,24,24,0,0,1-4.73,1.64,21.88,21.88,0,0,1-5.13.6,16.49,16.49,0,0,1-6.31-1.19,8.27,8.27,0,0,1-3.22-2.63,5.93,5.93,0,0,1-1.25-3.55,5.77,5.77,0,0,1,.53-2.36,6.7,6.7,0,0,1,1.71-2.24,9.76,9.76,0,0,1,2.43-1.31,3.18,3.18,0,0,1,2.83,0,1.71,1.71,0,0,1,.79,1.51,8.18,8.18,0,0,1-.27,2,3.91,3.91,0,0,0-.13,1.18,6.21,6.21,0,0,0,.86,3,2.18,2.18,0,0,0,2.3,1.32c7.58-.63,13.51-17.83,15.31-24.06s3.31-12.35,4.53-18.4q-2.24,2.5-4.2,4.93t-4.08,5.06q-7.1,8.81-14.46,17.42c-4.9,5.74-10.25,9.42-16,14.33-.7.52-1.43,1-2.17,1.51a6.87,6.87,0,0,1-2.43,1c-1,.27-1.69,1.76-2.17,1.19a2.88,2.88,0,0,1-.33-2.57,3.69,3.69,0,0,1,1.44-2,14.41,14.41,0,0,1,2.24-1.25l1.45-.92a72.18,72.18,0,0,0,9.66-7.36,115.13,115.13,0,0,0,8.87-8.94q4.2-4.74,8.15-9.66t7.49-9.67q2.24-3,4.41-5.85t4.4-5.45a8,8,0,0,1,2.37-2.23,9.16,9.16,0,0,1,2.76-1.12,13.79,13.79,0,0,1,3.08-.33c1.1,0,2.22,0,3.36.13v-.13c.44,0,.89,0,1.38.06a13.29,13.29,0,0,0,1.38.07Z" transform="translate(-23.83 -241.16)"/></svg>